<?xml version="1.0" encoding="UTF-8"?>
<svg width="787px" height="317px" viewBox="0 0 787 317" version="1.1" xmlns="http://www.w3.org/2000/svg" xmlns:xlink="http://www.w3.org/1999/xlink">
    <!-- Generator: Sketch 42 (36781) - http://www.bohemiancoding.com/sketch -->
    <title>Shape</title>
    <desc>Created with Sketch.</desc>
    <defs></defs>
    <g id="Page-1" stroke="none" stroke-width="1" fill="none" fill-rule="evenodd">
        <path d="M60.825,66.688 C57.207,64.103 53.243,62.896 46.523,62.551 C43.421,62.379 41.699,62.379 39.114,62.379 C38.425,62.379 38.081,62.724 38.081,63.585 L38.081,104.422 C38.081,115.795 38.598,118.725 44.111,120.964 C48.763,122.86 52.726,123.032 56.689,123.032 C64.444,123.032 77.539,118.895 77.539,100.975 C77.539,90.292 73.921,75.819 60.825,66.688 L60.825,66.688 Z M38.081,52.903 C38.081,54.282 38.598,54.626 39.287,54.798 C40.838,55.144 43.422,55.315 47.386,55.315 C53.072,55.315 56.863,54.627 59.791,52.042 C64.271,48.423 66.856,42.221 66.856,33.778 C66.856,22.232 60.136,7.069 45.317,7.069 C42.905,7.069 41.354,7.069 39.631,7.414 C38.424,7.759 38.08,8.448 38.08,10.343 L38.08,52.903 L38.081,52.903 Z M17.403,49.973 C17.403,23.782 17.403,18.957 17.058,13.443 C16.713,7.586 15.335,4.828 9.649,3.622 C8.271,3.278 5.341,3.105 2.929,3.105 C1.034,3.105 0,2.76 0,1.554 C0,0.348 1.206,0.004 3.791,0.002 C12.923,0.002 23.779,0.52 27.225,0.52 C35.668,0.52 42.389,0.002 48.247,0.004 C79.435,0.004 84.949,16.717 84.949,25.85 C84.949,39.979 76.85,48.421 67.373,56.004 C81.503,60.827 98.733,73.063 98.733,93.223 C98.733,111.661 84.431,130.786 52.726,130.786 C50.659,130.786 45.662,130.441 40.664,130.268 C35.495,129.924 30.326,129.751 27.741,129.751 C25.845,129.751 22.054,129.751 17.919,129.924 C13.956,129.924 9.477,130.268 6.03,130.268 C3.79,130.268 2.583,129.751 2.583,128.545 C2.583,127.684 3.273,127.166 5.341,127.166 C7.925,127.166 9.993,126.822 11.544,126.478 C14.99,125.788 15.852,121.998 16.541,117 C17.402,109.764 17.402,96.15 17.402,80.298 L17.402,49.973 L17.403,49.973 Z M121.988,61.863 C121.988,39.635 122.161,35.499 121.816,30.846 C121.471,25.677 120.093,24.299 115.268,22.92 C114.062,22.574 111.477,22.403 109.41,22.403 C107.686,22.403 106.826,21.885 106.826,20.852 C106.826,19.818 107.859,19.473 110.099,19.473 C118.198,19.473 128.364,19.818 132.843,19.818 C136.635,19.818 146.801,19.473 152.315,19.473 C154.555,19.473 155.588,19.818 155.588,20.852 C155.588,21.885 154.727,22.403 153.177,22.403 C151.453,22.403 150.592,22.575 148.698,22.92 C144.734,23.609 143.528,25.677 143.182,30.846 C142.838,35.498 142.838,39.635 142.838,61.863 L142.838,82.368 C142.838,103.734 146.973,112.005 154.382,117.863 C161.102,123.206 168.34,123.721 173.51,123.721 C180.056,123.721 187.811,121.826 193.841,115.967 C202.284,108.041 202.629,95.29 202.629,80.299 L202.629,61.863 C202.629,39.635 202.457,35.499 202.284,30.846 C201.939,25.85 200.733,24.299 195.909,22.92 C194.703,22.574 192.118,22.403 190.394,22.403 C188.671,22.403 187.81,21.885 187.81,20.852 C187.81,19.818 188.844,19.473 190.912,19.473 C198.666,19.473 208.832,19.818 209.004,19.818 C210.729,19.818 220.895,19.473 226.752,19.473 C228.82,19.473 229.855,19.818 229.855,20.852 C229.855,21.885 228.993,22.403 227.27,22.403 C225.547,22.403 224.685,22.575 222.79,22.92 C218.654,23.609 217.622,25.677 217.276,30.846 C217.104,35.498 216.931,39.635 216.931,61.863 L216.931,77.543 C216.931,93.912 215.208,111.144 202.457,121.654 C191.773,130.614 180.229,132.164 170.407,132.164 C162.48,132.164 146.801,131.82 135.773,122.171 C128.019,115.45 121.987,104.596 121.987,83.402 L121.987,61.863 L121.988,61.863 Z M243.979,128.373 C241.566,127.34 241.05,126.649 241.05,123.376 C241.05,115.449 241.738,106.318 241.91,103.906 C241.91,101.666 242.599,100.114 243.806,100.114 C245.185,100.114 245.357,101.493 245.357,102.527 C245.357,104.422 245.874,107.523 246.736,110.108 C250.01,120.963 261.382,124.583 270.86,124.583 C283.955,124.583 291.881,116.312 291.881,105.974 C291.881,99.598 290.329,93.223 276.89,85.296 L268.102,80.126 C250.182,69.616 244.324,59.793 244.324,46.871 C244.324,28.951 261.555,17.406 282.576,17.406 C292.397,17.406 300.153,18.785 304.115,19.818 C305.494,20.162 306.182,20.679 306.182,21.714 C306.182,23.61 305.666,27.745 305.666,39.29 C305.666,42.391 304.976,43.941 303.77,43.941 C302.736,43.941 302.22,43.08 302.22,41.357 C302.22,39.978 301.53,35.498 298.256,31.707 C296.016,28.951 291.193,24.816 281.369,24.816 C270.515,24.816 260.692,30.501 260.692,40.495 C260.692,47.044 263.104,52.212 276.716,59.794 L282.92,63.239 C302.907,74.268 309.111,85.468 309.111,98.736 C309.111,109.59 304.974,118.38 293.947,126.133 C286.71,131.303 276.716,132.162 268.618,132.162 C259.832,132.163 250.526,131.304 243.979,128.373 L243.979,128.373 Z M334.611,61.863 C334.611,39.635 334.611,35.499 334.44,30.846 C334.095,25.85 332.544,24.126 329.27,23.092 C327.547,22.574 325.651,22.404 323.756,22.404 C322.206,22.404 321.343,22.059 321.343,20.68 C321.343,19.819 322.549,19.474 324.962,19.474 C330.649,19.474 340.986,19.819 345.294,19.819 C349.086,19.819 358.907,19.474 364.766,19.474 C366.661,19.474 367.868,19.819 367.868,20.68 C367.868,22.059 367.007,22.404 365.455,22.404 C363.905,22.404 362.699,22.575 360.976,22.921 C356.84,23.61 355.634,25.678 355.289,30.847 C354.945,35.499 354.945,39.636 354.945,61.864 L354.945,87.71 C354.945,101.839 354.945,113.557 355.633,119.761 C356.15,123.723 357.185,125.963 361.664,126.652 C363.731,126.998 367.178,127.17 369.418,127.17 C371.141,127.17 371.83,128.031 371.83,128.722 C371.83,129.755 370.624,130.272 368.9,130.272 C358.907,130.272 348.568,129.755 344.432,129.755 C340.986,129.755 330.648,130.272 324.617,130.272 C322.721,130.272 321.688,129.755 321.688,128.722 C321.688,128.032 322.205,127.17 324.1,127.17 C326.34,127.17 328.063,126.998 329.441,126.652 C332.543,125.964 333.405,123.896 333.921,119.589 C334.609,113.558 334.609,101.84 334.609,87.711 L334.609,61.863 L334.611,61.863 Z M406.98,110.281 C407.324,121.653 409.22,125.099 412.149,126.134 C414.734,126.995 417.663,127.167 420.075,127.167 C421.798,127.167 422.66,127.857 422.66,128.719 C422.66,129.925 421.281,130.269 419.214,130.269 C409.393,130.269 402.326,129.752 399.57,129.752 C398.192,129.752 390.955,130.269 383.201,130.269 C381.133,130.269 379.755,130.098 379.755,128.719 C379.755,127.858 380.789,127.167 382.167,127.167 C384.235,127.167 386.991,126.995 389.061,126.479 C393.023,125.445 393.54,121.481 393.712,108.73 L395.091,21.886 C395.091,18.957 396.124,16.889 397.676,16.889 C399.571,16.889 401.639,19.129 404.223,21.714 C406.119,23.61 428.864,46.871 450.918,68.41 C461.258,78.576 481.418,99.254 483.658,101.321 L484.347,101.321 L482.794,36.187 C482.624,27.227 481.245,24.642 477.628,23.264 C475.388,22.403 471.767,22.403 469.7,22.403 C467.805,22.403 467.287,21.714 467.287,20.852 C467.287,19.646 468.838,19.473 471.078,19.473 C479.005,19.473 487.103,19.818 490.378,19.818 C492.101,19.818 497.786,19.473 505.196,19.473 C507.264,19.473 508.641,19.645 508.641,20.852 C508.641,21.713 507.78,22.403 506.057,22.403 C504.505,22.403 503.3,22.403 501.404,22.92 C497.268,24.126 496.063,26.711 495.89,34.982 L494.167,127.34 C494.167,130.613 492.961,131.992 491.754,131.992 C489.17,131.992 487.103,130.441 485.551,128.889 C476.073,120.102 457.119,102.01 441.269,86.674 C424.727,70.821 408.702,53.072 405.771,50.488 L405.255,50.488 L406.98,110.281 L406.98,110.281 Z M535.173,61.863 C535.173,39.635 535.173,35.499 534.999,30.846 C534.655,25.85 533.277,24.299 528.451,22.92 C527.246,22.574 524.662,22.403 522.422,22.403 C520.87,22.403 519.837,21.885 519.837,20.852 C519.837,19.818 521.043,19.473 523.283,19.473 C531.209,19.473 540.859,19.818 545.166,19.818 C549.99,19.818 583.59,19.989 586.52,19.818 C589.277,19.645 591.69,19.129 592.895,18.957 C593.757,18.785 594.618,18.268 595.307,18.268 C596.169,18.268 596.341,18.957 596.341,19.646 C596.341,20.68 595.48,22.404 595.134,29.124 C594.963,30.675 594.617,37.051 594.274,38.773 C594.101,39.461 593.757,41.185 592.551,41.185 C591.517,41.185 591.343,40.496 591.343,39.29 C591.343,38.256 591.172,35.671 590.311,33.947 C589.103,31.363 587.898,29.296 580.316,28.606 C577.732,28.26 559.64,27.917 556.538,27.917 C555.85,27.917 555.504,28.434 555.504,29.296 L555.504,65.48 C555.504,66.342 555.677,67.032 556.538,67.032 C559.984,67.032 579.628,67.032 583.074,66.688 C586.693,66.342 588.932,65.998 590.311,64.448 C591.517,63.413 592.034,62.552 592.724,62.552 C593.412,62.552 593.93,63.241 593.93,64.104 C593.93,64.965 593.583,67.377 592.724,74.787 C592.377,77.717 592.034,83.575 592.034,84.608 C592.034,85.814 591.861,87.882 590.484,87.882 C589.45,87.882 589.103,87.364 589.103,86.676 C588.932,85.124 588.932,83.23 588.587,81.333 C587.726,78.404 585.829,76.164 580.144,75.648 C577.387,75.302 560.156,74.958 556.367,74.958 C555.677,74.958 555.504,75.648 555.504,76.51 L555.504,88.227 C555.504,93.224 555.333,105.63 555.504,109.937 C555.85,119.931 560.5,122.171 576.01,122.171 C579.973,122.171 586.348,121.999 590.312,120.275 C594.102,118.552 595.825,115.451 596.858,109.421 C597.205,107.869 597.548,107.181 598.583,107.181 C599.789,107.181 599.962,109.077 599.962,110.626 C599.962,113.9 598.755,123.895 597.893,126.824 C596.859,130.614 595.482,130.614 589.795,130.614 C578.423,130.614 569.29,130.442 561.882,130.098 C554.472,129.925 548.785,129.752 544.306,129.752 C542.581,129.752 539.308,129.925 535.691,129.925 C532.072,130.098 528.281,130.269 525.179,130.269 C523.284,130.269 522.25,129.752 522.25,128.719 C522.25,128.029 522.767,127.167 524.663,127.167 C526.902,127.167 528.625,126.995 530.004,126.649 C533.106,125.961 533.966,123.205 534.483,118.895 C535.173,112.693 535.173,101.148 535.173,87.707 L535.173,61.863 L535.173,61.863 Z M618.909,128.373 C616.497,127.34 615.979,126.649 615.979,123.376 C615.979,115.449 616.668,106.318 616.841,103.906 C616.841,101.666 617.529,100.114 618.736,100.114 C620.115,100.114 620.287,101.493 620.287,102.527 C620.287,104.422 620.806,107.523 621.667,110.108 C624.939,120.963 636.313,124.583 645.789,124.583 C658.885,124.583 666.81,116.312 666.81,105.974 C666.81,99.598 665.26,93.223 651.82,85.296 L643.033,80.126 C625.113,69.616 619.253,59.793 619.253,46.871 C619.253,28.951 636.485,17.406 657.507,17.406 C667.328,17.406 675.082,18.785 679.045,19.818 C680.424,20.162 681.113,20.679 681.113,21.714 C681.113,23.61 680.596,27.745 680.596,39.29 C680.596,42.391 679.906,43.941 678.7,43.941 C677.667,43.941 677.15,43.08 677.15,41.357 C677.15,39.978 676.461,35.498 673.186,31.707 C670.947,28.951 666.122,24.816 656.3,24.816 C645.444,24.816 635.622,30.501 635.622,40.495 C635.622,47.044 638.034,52.212 651.647,59.794 L657.849,63.239 C677.838,74.268 684.04,85.468 684.04,98.736 C684.04,109.59 679.904,118.38 668.877,126.133 C661.64,131.303 651.647,132.162 643.547,132.162 C634.761,132.163 625.457,131.304 618.909,128.373 L618.909,128.373 Z M704.716,128.373 C702.305,127.34 701.787,126.649 701.787,123.376 C701.787,115.449 702.475,106.318 702.648,103.906 C702.648,101.666 703.337,100.114 704.544,100.114 C705.922,100.114 706.094,101.493 706.094,102.527 C706.094,104.422 706.612,107.523 707.473,110.108 C710.746,120.963 722.119,124.583 731.596,124.583 C744.692,124.583 752.618,116.312 752.618,105.974 C752.618,99.598 751.068,93.223 737.628,85.296 L728.84,80.126 C710.919,69.616 705.061,59.793 705.061,46.871 C705.061,28.951 722.292,17.406 743.313,17.406 C753.136,17.406 760.889,18.785 764.854,19.818 C766.231,20.162 766.919,20.679 766.919,21.714 C766.919,23.61 766.402,27.745 766.402,39.29 C766.402,42.391 765.713,43.941 764.506,43.941 C763.472,43.941 762.956,43.08 762.956,41.357 C762.956,39.978 762.266,35.498 758.992,31.707 C756.752,28.951 751.929,24.816 742.106,24.816 C731.251,24.816 721.429,30.501 721.429,40.495 C721.429,47.044 723.84,52.212 737.453,59.794 L743.656,63.239 C763.643,74.268 769.847,85.468 769.847,98.736 C769.847,109.59 765.71,118.38 754.683,126.133 C747.447,131.303 737.453,132.162 729.353,132.162 C720.568,132.163 711.263,131.304 704.716,128.373 L704.716,128.373 Z M24.465,234.033 C24.465,207.841 24.465,203.017 24.12,197.504 C23.775,191.644 22.052,188.716 18.262,187.854 C16.366,187.336 14.126,187.164 12.059,187.164 C10.335,187.164 9.302,186.82 9.302,185.443 C9.302,184.408 10.68,184.063 13.437,184.063 C19.985,184.063 30.84,184.581 35.837,184.581 C40.145,184.581 50.311,184.063 56.858,184.063 C59.098,184.063 60.477,184.408 60.477,185.443 C60.477,186.82 59.443,187.164 57.72,187.164 C55.996,187.164 54.618,187.337 52.55,187.684 C47.898,188.543 46.519,191.474 46.175,197.505 C45.83,203.019 45.83,207.842 45.83,234.034 L45.83,264.359 C45.83,281.073 45.83,294.687 46.518,302.095 C47.036,306.747 48.242,309.848 53.412,310.538 C55.824,310.882 59.615,311.226 62.199,311.226 C64.095,311.226 64.956,311.744 64.956,312.605 C64.956,313.811 63.578,314.328 61.683,314.328 C50.31,314.328 39.455,313.811 34.802,313.811 C30.839,313.811 19.984,314.328 13.091,314.328 C10.852,314.328 9.645,313.811 9.645,312.605 C9.645,311.744 10.334,311.226 12.402,311.226 C14.987,311.226 17.055,310.881 18.606,310.538 C22.051,309.848 23.085,306.919 23.603,301.922 C24.464,294.687 24.464,281.072 24.464,264.359 L24.464,234.033 L24.465,234.033 Z M112.168,294.341 C112.513,305.713 114.408,309.159 117.338,310.194 C119.922,311.055 122.852,311.227 125.264,311.227 C126.987,311.227 127.849,311.916 127.849,312.779 C127.849,313.985 126.471,314.329 124.403,314.329 C114.582,314.329 107.517,313.812 104.759,313.812 C103.381,313.812 96.144,314.329 88.39,314.329 C86.322,314.329 84.944,314.156 84.944,312.779 C84.944,311.917 85.978,311.227 87.356,311.227 C89.424,311.227 92.181,311.055 94.249,310.539 C98.212,309.505 98.729,305.543 98.901,292.791 L100.28,205.947 C100.28,203.018 101.313,200.951 102.864,200.951 C104.76,200.951 106.827,203.19 109.412,205.774 C111.308,207.67 134.053,230.931 156.108,252.47 C166.447,262.636 186.607,283.313 188.847,285.381 L189.535,285.381 L187.985,220.247 C187.812,211.287 186.434,208.703 182.815,207.323 C180.575,206.464 176.957,206.464 174.888,206.464 C172.993,206.464 172.476,205.774 172.476,204.912 C172.476,203.706 174.028,203.533 176.267,203.533 C184.194,203.533 192.292,203.879 195.566,203.879 C197.29,203.879 202.975,203.533 210.386,203.533 C212.453,203.533 213.831,203.706 213.831,204.912 C213.831,205.773 212.969,206.464 211.246,206.464 C209.694,206.464 208.489,206.464 206.593,206.98 C202.458,208.187 201.252,210.772 201.079,219.042 L199.355,311.4 C199.355,314.673 198.15,316.052 196.944,316.052 C194.359,316.052 192.292,314.502 190.74,312.949 C181.264,304.162 162.309,286.07 146.457,270.734 C129.916,254.882 113.891,237.133 110.961,234.549 L110.444,234.549 L112.168,294.341 L112.168,294.341 Z M246.562,312.434 C244.151,311.4 243.633,310.709 243.633,307.436 C243.633,299.51 244.322,290.379 244.494,287.966 C244.494,285.727 245.183,284.175 246.39,284.175 C247.768,284.175 247.941,285.553 247.941,286.587 C247.941,288.483 248.458,291.585 249.319,294.169 C252.592,305.024 263.965,308.642 273.443,308.642 C286.538,308.642 294.464,300.372 294.464,290.033 C294.464,283.659 292.913,277.283 279.474,269.357 L270.685,264.188 C252.765,253.675 246.907,243.855 246.907,230.931 C246.907,213.011 264.137,201.466 285.159,201.466 C294.981,201.466 302.735,202.844 306.698,203.879 C308.077,204.224 308.766,204.74 308.766,205.774 C308.766,207.67 308.248,211.804 308.248,223.35 C308.248,226.452 307.56,228.001 306.352,228.001 C305.319,228.001 304.801,227.14 304.801,225.417 C304.801,224.039 304.113,219.56 300.838,215.768 C298.598,213.011 293.774,208.876 283.952,208.876 C273.097,208.876 263.275,214.562 263.275,224.556 C263.275,231.104 265.687,236.274 279.298,243.855 L285.502,247.301 C305.49,258.328 311.692,269.529 311.692,282.796 C311.692,293.652 307.557,302.44 296.53,310.193 C289.293,315.362 279.298,316.224 271.2,316.224 C262.417,316.225 253.111,315.363 246.562,312.434 L246.562,312.434 Z M351.669,245.921 C351.669,223.693 351.669,219.56 351.498,214.906 C351.153,209.91 349.602,208.186 346.328,207.152 C344.605,206.635 342.709,206.464 340.814,206.464 C339.262,206.464 338.401,206.118 338.401,204.74 C338.401,203.879 339.607,203.533 342.02,203.533 C347.707,203.533 358.044,203.879 362.352,203.879 C366.144,203.879 375.964,203.533 381.824,203.533 C383.719,203.533 384.926,203.879 384.926,204.74 C384.926,206.118 384.065,206.464 382.513,206.464 C380.963,206.464 379.757,206.636 378.034,206.98 C373.898,207.67 372.692,209.738 372.347,214.907 C372.003,219.56 372.003,223.694 372.003,245.922 L372.003,271.77 C372.003,285.9 372.003,297.617 372.691,303.82 C373.208,307.784 374.243,310.023 378.722,310.711 C380.789,311.057 384.236,311.229 386.476,311.229 C388.199,311.229 388.887,312.09 388.887,312.781 C388.887,313.814 387.682,314.331 385.958,314.331 C375.964,314.331 365.626,313.814 361.49,313.814 C358.044,313.814 347.706,314.331 341.675,314.331 C339.779,314.331 338.745,313.814 338.745,312.781 C338.745,312.091 339.262,311.229 341.158,311.229 C343.398,311.229 345.12,311.057 346.499,310.711 C349.601,310.023 350.463,307.955 350.979,303.648 C351.667,297.618 351.667,285.901 351.667,271.771 L351.667,245.921 L351.669,245.921 Z M449.367,262.118 C449.367,277.627 449.539,288.827 449.712,291.756 C449.883,295.375 450.231,300.544 451.435,302.095 C453.331,304.852 459.361,307.953 471.25,307.953 C485.034,307.953 495.201,305.542 504.334,297.959 C514.155,289.861 517.258,276.765 517.258,261.603 C517.258,242.994 509.848,230.931 503.128,225.074 C489.17,212.667 472.629,211.117 460.74,211.117 C457.636,211.117 452.64,211.461 451.434,212.15 C450.056,212.667 449.538,213.357 449.538,215.079 C449.366,220.077 449.366,232.139 449.366,243.682 L449.366,262.118 L449.367,262.118 Z M429.035,245.921 C429.035,223.693 429.035,219.56 428.861,214.906 C428.516,209.91 427.138,208.358 422.314,206.979 C421.107,206.635 418.522,206.463 416.283,206.463 C414.732,206.463 413.699,205.945 413.699,204.911 C413.699,203.878 414.905,203.532 417.145,203.532 C425.072,203.532 434.72,203.878 439.029,203.878 C443.68,203.878 454.537,203.532 463.67,203.532 C482.623,203.532 508.124,203.532 524.666,220.246 C532.248,227.829 538.968,240.062 538.968,257.467 C538.968,275.905 531.042,289.861 522.426,298.304 C515.534,305.195 499.508,315.534 471.594,315.534 C466.08,315.534 459.533,315.017 453.503,314.672 C447.472,314.154 441.957,313.811 438.167,313.811 C436.443,313.811 433.169,313.984 429.552,313.984 C425.934,314.155 422.142,314.328 419.039,314.328 C417.145,314.328 416.111,313.811 416.111,312.778 C416.111,312.088 416.628,311.226 418.522,311.226 C420.762,311.226 422.486,311.054 423.865,310.708 C426.967,310.02 427.828,307.264 428.345,302.955 C429.034,296.753 429.034,285.208 429.034,271.767 L429.034,245.921 L429.035,245.921 Z M577.731,245.921 C577.731,223.693 577.731,219.56 577.559,214.906 C577.214,209.91 575.837,208.358 571.011,206.979 C569.806,206.635 567.22,206.463 564.98,206.463 C563.431,206.463 562.396,205.945 562.396,204.911 C562.396,203.878 563.603,203.532 565.842,203.532 C573.769,203.532 583.417,203.878 587.726,203.878 C592.55,203.878 626.15,204.049 629.08,203.878 C631.838,203.705 634.249,203.189 635.455,203.017 C636.318,202.843 637.178,202.327 637.868,202.327 C638.729,202.327 638.902,203.017 638.902,203.706 C638.902,204.74 638.041,206.464 637.695,213.184 C637.524,214.734 637.177,221.11 636.834,222.832 C636.662,223.521 636.318,225.245 635.111,225.245 C634.078,225.245 633.904,224.556 633.904,223.349 C633.904,222.316 633.731,219.731 632.871,218.007 C631.664,215.423 630.458,213.356 622.877,212.665 C620.292,212.32 602.2,211.977 599.098,211.977 C598.41,211.977 598.065,212.493 598.065,213.356 L598.065,249.541 C598.065,250.402 598.237,251.091 599.098,251.091 C602.544,251.091 622.188,251.091 625.635,250.747 C629.252,250.402 631.492,250.058 632.871,248.508 C634.078,247.474 634.594,246.612 635.285,246.612 C635.973,246.612 636.49,247.301 636.49,248.162 C636.49,249.024 636.144,251.435 635.285,258.846 C634.937,261.776 634.594,267.634 634.594,268.668 C634.594,269.873 634.422,271.942 633.045,271.942 C632.01,271.942 631.664,271.425 631.664,270.735 C631.492,269.185 631.492,267.29 631.148,265.394 C630.287,262.464 628.39,260.224 622.705,259.707 C619.949,259.362 602.717,259.018 598.928,259.018 C598.237,259.018 598.065,259.707 598.065,260.569 L598.065,272.286 C598.065,277.283 597.893,289.689 598.065,293.997 C598.411,303.99 603.061,306.23 618.571,306.23 C622.532,306.23 628.909,306.058 632.872,304.334 C636.663,302.613 638.388,299.51 639.419,293.48 C639.765,291.929 640.108,291.241 641.144,291.241 C642.349,291.241 642.523,293.136 642.523,294.687 C642.523,297.958 641.316,307.953 640.453,310.881 C639.42,314.672 638.043,314.672 632.357,314.672 C620.984,314.672 611.851,314.501 604.443,314.154 C597.033,313.983 591.345,313.81 586.867,313.81 C585.142,313.81 581.869,313.983 578.252,313.983 C574.634,314.154 570.843,314.327 567.738,314.327 C565.845,314.327 564.812,313.81 564.812,312.777 C564.812,312.087 565.328,311.225 567.222,311.225 C569.462,311.225 571.187,311.053 572.564,310.707 C575.666,310.019 576.527,307.263 577.044,302.954 C577.733,296.753 577.733,285.208 577.733,271.767 L577.731,245.921 L577.731,245.921 Z M700.069,257.295 C700.069,258.845 700.413,259.362 701.447,259.879 C704.72,260.914 709.2,261.258 712.993,261.258 C719.023,261.258 721.09,260.741 723.674,258.845 C728.328,255.572 733.497,249.196 733.497,237.134 C733.497,216.457 719.367,211.116 710.406,211.116 C706.617,211.116 702.998,211.287 701.447,211.633 C700.413,211.978 700.069,212.493 700.069,213.7 L700.069,257.295 L700.069,257.295 Z M680.77,245.921 C680.77,223.693 680.77,219.56 680.597,214.906 C680.252,209.91 678.874,208.358 674.048,206.979 C672.842,206.635 670.259,206.463 668.019,206.463 C666.468,206.463 665.435,205.945 665.435,204.911 C665.435,203.878 666.641,203.532 668.88,203.532 C676.806,203.532 686.456,203.878 689.557,203.878 C694.726,203.878 708.512,203.532 713.163,203.532 C722.813,203.532 733.841,204.395 741.939,209.736 C746.247,212.665 752.623,220.075 752.623,229.896 C752.623,240.752 746.419,250.401 731.601,262.29 C745.041,278.831 755.724,292.101 764.857,301.232 C773.3,309.674 778.641,310.364 781.054,310.88 C782.605,311.225 783.466,311.225 784.672,311.225 C785.878,311.225 786.568,312.086 786.568,312.777 C786.568,313.983 785.534,314.327 783.638,314.327 L769.165,314.327 C760.721,314.327 756.586,313.466 752.623,311.398 C746.074,308.125 740.39,301.232 731.946,289.86 C725.913,281.933 719.54,272.111 717.643,269.871 C716.782,269.01 715.918,268.838 714.885,268.838 L701.274,268.494 C700.585,268.494 700.068,268.838 700.068,269.7 L700.068,271.767 C700.068,285.379 700.239,296.752 700.929,302.955 C701.446,307.264 702.135,310.02 706.787,310.708 C709.027,311.054 712.301,311.226 714.196,311.226 C715.402,311.226 716.092,312.087 716.092,312.778 C716.092,313.811 714.885,314.328 712.991,314.328 C704.202,314.328 691.623,313.811 689.384,313.811 C686.455,313.811 676.805,314.328 670.774,314.328 C668.879,314.328 667.845,313.811 667.845,312.778 C667.845,312.088 668.362,311.226 670.258,311.226 C672.497,311.226 674.221,311.054 675.599,310.708 C678.702,310.02 679.561,307.264 680.078,302.955 C680.768,296.753 680.768,285.208 680.768,271.767 L680.768,245.921 L680.77,245.921 Z" id="Shape" fill="#004BD3" fill-rule="nonzero"></path>
    </g>
</svg>