<?xml version="1.0" encoding="UTF-8"?>
<svg width="776px" height="115px" viewBox="0 0 776 115" version="1.1" xmlns="http://www.w3.org/2000/svg" xmlns:xlink="http://www.w3.org/1999/xlink">
    <!-- Generator: Sketch 42 (36781) - http://www.bohemiancoding.com/sketch -->
    <title>cbs</title>
    <desc>Created with Sketch.</desc>
    <defs></defs>
    <g id="Page-1" stroke="none" stroke-width="1" fill="none" fill-rule="evenodd">
        <g id="cbs" fill-rule="nonzero" fill="#004BD3">
            <path d="M726.565718,1.5053528 C729.756563,0.470072993 733.135105,-0.0699513382 736.499639,0.0699513382 C740.84748,0.195863747 745.063653,1.48017032 749.064116,3.12262774 C751.451226,4.07676399 753.594051,5.62128954 756.109747,6.25924574 C758.367991,6.82445255 760.995186,6.78248175 762.959278,5.3946472 C764.36,4.16350365 764.516881,2.1796837 764.973236,0.486861314 C765.228168,0.447688564 765.491783,0.408515815 765.763243,0.369343066 C766.175056,1.89148418 765.934131,3.48357664 765.995763,5.0392944 C766.020976,10.0701946 765.749236,15.0927007 765.735229,20.123601 C765.729346,23.2154501 765.550334,26.3017032 765.541929,29.3907543 C765.38785,32.7400243 765.516716,36.0920925 765.36824,39.4385645 C765.329019,40.0093674 765.231249,40.5857664 764.86398,41.0418491 C764.67096,40.9411192 764.286602,40.7368613 764.093583,40.6333333 C763.580918,36.5006083 763.533294,32.2699513 762.300658,28.2578224 C760.659292,22.7568491 758.21055,17.4937105 755.171264,12.6250973 C752.330319,8.13701946 748.078007,4.59748175 743.192009,2.52412409 C741.611994,1.85259124 739.889106,1.66512165 738.202637,1.48884428 C734.070507,0.901253041 729.638622,1.53641119 726.12281,3.87558394 C721.920644,7.01220195 718.942709,12.0375061 718.951113,17.3594039 C718.642674,21.8418856 719.152817,26.5510097 721.441597,30.4990633 C722.74707,33.2971168 724.895778,35.6390876 727.433886,37.3766788 C731.919278,40.9246107 737.53029,42.4327616 742.841828,44.2738808 C745.780543,45.2308151 748.719258,46.1961436 751.615951,47.2733942 C756.837843,49.6237591 762.325591,51.8705961 766.449597,55.9809367 C768.287344,57.6429805 769.797323,59.6407908 771.004745,61.8008881 C772.256991,64.0225426 773.467214,66.3113504 774.072326,68.8100122 C775.103258,72.828017 775.487056,77.008309 775.285352,81.1494282 L775.926882,81.2924088 C775.764399,81.2728224 775.439431,81.2336496 775.279469,81.2140633 C775.100176,84.3982482 774.038429,87.4397324 772.873028,90.3804866 C772.752566,90.3133333 772.511642,90.1765085 772.39118,90.1090754 C772.492032,90.2098054 772.690654,90.4081873 772.788985,90.5091971 C770.707512,95.0448418 768.032413,99.3846229 764.435079,102.88219 C761.350689,106.080645 757.663988,108.749988 753.585366,110.52927 C750.190016,111.802664 746.615373,112.902019 742.951084,112.717348 C739.404456,112.848856 735.902651,112.118564 732.509822,111.17562 C728.705461,109.871727 725.024364,108.257251 721.337664,106.665158 C718.387743,105.380852 715.040297,104.639367 711.86346,105.473187 C709.403792,106.077287 707.20718,107.800888 706.162241,110.120474 C705.702804,111.290341 705.677871,112.563175 705.478689,113.791521 C705.139994,113.774732 704.815027,113.752348 704.498183,113.724647 C704.291157,110.053601 704.431229,106.368564 704.380523,102.689124 C704.436552,92.7924088 704.487258,82.8956934 704.671873,73.0017762 C704.781409,69.7644282 704.509669,66.4935036 705.013929,63.2841363 C705.324609,63.2981265 705.652378,63.3205109 705.983229,63.3568856 C706.599266,66.669781 706.677707,70.06382 707.495729,73.3459367 C708.532263,77.968601 710.210328,82.4203041 712.168817,86.7290268 C713.227483,88.9758637 714.241606,91.2534793 715.547359,93.3744039 C717.317871,96.5445985 719.749525,99.2754988 722.18398,101.94764 C724.127902,104.219659 726.534342,106.038394 729.047518,107.639161 C734.314232,111.136727 741.029294,112.653273 747.223287,111.144842 C750.402926,110.411752 753.156745,108.486691 755.434319,106.214672 C759.319922,102.409319 761.650723,96.9587105 761.331359,91.4943917 C761.110045,86.2676277 759.544038,80.8030292 755.770492,77.0085888 C753.616182,74.7785401 750.904384,73.2088321 748.259821,71.636326 C742.749381,68.7235523 736.731879,66.9915572 730.865375,64.9629684 C724.237438,63.0994647 717.894689,59.7222141 713.28071,54.540219 C711.025548,51.8932603 709.081346,48.9049392 708.039209,45.5696594 C706.299512,41.0508029 705.814862,36.1206326 706.151035,31.3163747 C706.487209,27.5418005 707.005476,23.7224574 708.445418,20.1885158 C709.403512,17.7989781 710.66108,15.5297567 712.143324,13.4228224 C715.516823,8.05559611 720.629458,3.77177616 726.565718,1.5053528 Z" id="Shape"></path>
            <path d="M52.2777473,0.870194647 C59.1468881,0.277007299 66.1224838,1.01009732 72.7254874,2.97712895 C82.2419928,5.67445255 90.9404765,11.0635036 97.7451841,18.2153285 C106.365227,27.4069343 111.920491,39.4693431 113.041069,52.0326034 C114.419379,65.6759124 110.52257,79.7417275 102.437603,90.8139051 C94.2125632,102.299635 81.404361,110.321934 67.537213,112.963017 C51.5101516,116.183856 34.144,111.992092 21.4198412,101.726314 C11.64,94.0568491 4.61958123,82.9961436 1.7621083,70.9169465 C-1.85175451,56.4062409 0.647133574,40.5328832 8.50238267,27.8073358 C16.0354657,15.4147567 28.5411119,6.178382 42.5903538,2.54930657 C45.7391769,1.60048662 49.014065,1.16399027 52.2777473,0.870194647 L52.2777473,0.870194647 Z M51.9639856,24.5641119 C41.9096029,25.4958637 32.0401155,28.8815085 23.7002166,34.5979319 C15.5003899,40.1324818 8.71529242,47.7515815 4.2806065,56.5934307 C4.09851264,57.1026764 3.68950181,57.6622871 3.93322744,58.2163017 C9.58934296,69.6547445 19.1758845,79.03382 30.5945704,84.7110706 C36.9762599,87.8448905 43.9378484,89.8119221 51.014296,90.5254258 C64.6993502,91.9356448 78.8550469,88.2811071 90.1028448,80.3517032 C98.3474946,74.7192214 105.062556,66.8734793 109.416,57.8973236 C109.973207,57.0607056 109.250715,56.2100973 108.919864,55.4462287 C104.045632,46.3077859 96.7587957,38.422871 87.8614094,33.0701946 C77.2134007,26.5115572 64.4192058,23.5316302 51.9639856,24.5641119 Z" id="Shape"></path>
            <path d="M323.855336,3.66824818 C327.138628,1.71800487 331.001819,1.06326034 334.763879,0.886982968 C341.344471,0.573600973 347.698146,2.96593674 353.39068,6.05778589 C355.625952,7.31690998 358.296009,8.02201946 360.850926,7.47639903 C361.909871,7.25815085 363.036052,6.8527129 363.702796,5.9486618 C364.672375,4.69541363 364.826455,3.06107056 365.213054,1.57530414 C365.473588,1.55571776 365.739726,1.53613139 366.011466,1.51654501 C366.462498,4.53004866 366.073378,7.59391727 366.101112,10.6270073 C366.013987,18.3748175 365.795755,26.1170316 365.647278,33.8620438 C365.653161,35.2526764 365.680895,36.6461071 365.55483,38.0311436 C365.434368,39.309854 365.725718,40.6781022 365.154224,41.8756691 C364.893409,41.8336983 364.635677,41.7945255 364.383827,41.7525547 C363.820456,38.1402676 363.868361,34.4384428 363.016722,30.8653285 C361.593588,25.0873479 359.119913,19.5947689 356.122368,14.4659367 C353.413372,9.7540146 349.236419,5.906691 344.29215,3.62907543 C342.297522,2.59939173 340.033955,2.39233577 337.842946,2.13491484 C333.929329,1.74878345 329.78039,2.36995134 326.508303,4.66435523 C322.572274,7.69744526 319.728809,12.4093674 319.636361,17.4514599 C318.939082,24.2619221 320.941834,31.6403893 326.088087,36.3746959 C327.911827,37.9444039 329.830816,39.4329684 331.965516,40.5689781 C334.839798,42.079927 337.896173,43.2019465 340.966556,44.2372263 C343.543884,45.2445255 346.199653,46.0335766 348.785106,47.0212895 C351.793857,47.9418491 354.570088,49.4388078 357.447171,50.6839416 C360.229285,52.2032847 363.103287,53.6666667 365.420361,55.8715328 C368.647625,58.6947689 370.970022,62.3909976 372.704116,66.2746959 C374.194204,69.73309 374.684456,73.5076642 374.970484,77.2290754 C375.116159,80.2145985 375.062931,83.2476886 374.236505,86.1408759 C371.303394,96.336983 364.324996,105.536983 354.749661,110.324732 C351.903394,111.586655 348.885958,112.504416 345.799047,112.91573 C342.442917,113.142652 339.050088,112.907336 335.786686,112.073516 C333.083292,111.558674 330.584404,110.383491 328.018282,109.443345 C324.959105,108.147847 321.989574,106.597725 318.795928,105.651983 C315.8715,105.016825 312.523495,105.000036 309.979783,106.782397 C308.172852,107.896022 306.822556,109.823881 306.612448,111.955998 C306.542412,112.571569 306.455287,113.186861 306.340427,113.797117 C306.046276,113.805511 305.757727,113.813905 305.474781,113.819501 C305.082579,112.862567 305.205843,111.821411 305.203041,110.81719 C305.18063,103.074976 305.261871,95.3327616 305.301092,87.5905474 C305.502796,83.4858029 305.371128,79.3698662 305.466377,75.2623236 C305.558825,71.8235158 305.469458,68.3791119 305.634744,64.9431022 C305.682368,64.3639051 305.671162,63.2167032 306.550816,63.3985766 C307.352029,64.3135401 307.111105,65.6873844 307.377242,66.8122019 C307.901112,73.5247324 309.948968,80.027129 312.691581,86.1467518 C313.842975,88.6733942 314.935538,91.2364112 316.392289,93.6063625 C317.899466,96.3652433 319.96413,98.7603771 322.009184,101.130328 C323.278238,102.490182 324.460448,103.953564 325.937089,105.103564 C328.136503,106.871934 330.439009,108.55944 333.016618,109.737421 C337.176762,111.799307 341.98404,112.373187 346.550394,111.687664 C350.931853,110.828662 354.649369,107.963175 357.34716,104.507859 C359.512676,101.614672 360.980632,98.1618735 361.3056,94.5495864 C361.61656,89.5354745 360.636055,84.3618735 357.983087,80.0472749 C356.335838,77.6213625 354.122978,75.6263504 351.640618,74.0762287 C349.441484,72.5289051 347.079867,71.2110219 344.575376,70.2230292 C339.017311,67.8111071 333.19591,66.0959002 327.494692,64.0757056 C321.435168,61.7561192 315.85189,57.875219 312.179197,52.4665815 C310.022365,49.5677981 308.78945,46.1233942 307.826033,42.6761922 C306.937695,38.7561192 306.601522,34.6877494 307.069643,30.6865328 C307.408618,26.6461436 308.167809,22.5721776 309.957932,18.8983333 C312.991336,12.65 317.566094,6.87761557 323.855336,3.66824818 Z" id="Shape"></path>
            <path d="M164.248664,1.4689781 C167.716852,0.76107056 171.316708,0.90377129 174.779292,1.56690998 C179.785473,2.76447689 184.561935,4.75109489 189.17031,7.0203163 C191.786859,8.25145985 194.85444,9.54416058 197.720598,8.34099757 C200.230692,7.32530414 201.270027,4.54683698 201.68184,2.07055961 C201.995601,2.05097324 202.309363,2.03698297 202.628728,2.02579075 C202.934085,3.85291971 202.651139,5.7136253 202.883659,7.54914842 C202.651139,13.3327251 202.838836,19.1218978 202.723977,24.9082725 C202.712771,31.8138686 202.687558,38.7194647 202.623405,45.6250608 C202.603795,46.2154501 202.486134,47.2255474 201.648503,46.8058394 C201.214279,46.1231144 201.343145,45.2864964 201.27591,44.5226277 C200.774452,38.627129 199.298091,32.829562 196.939555,27.4041363 C194.751347,22.479562 192.263945,17.613747 188.764661,13.4726277 C187.162235,11.4608273 185.498458,9.45742092 183.416705,7.91849148 C180.172632,5.15961071 176.236604,3.04428224 171.955997,2.55742092 C168.902703,2.17128954 165.678241,2.19927007 162.787151,3.36326034 C160.744898,4.29501217 158.736263,5.38345499 157.086212,6.92798054 C154.699102,9.2783455 152.847347,12.1575426 151.645528,15.2801703 C150.460797,18.5315085 149.2643,21.7884428 148.435073,25.1545012 C147.547015,27.963747 147.314495,30.9100973 146.76009,33.7920925 C146.339873,36.9762774 145.832531,40.1576642 145.712349,43.3754258 C145.048407,49.503163 144.692624,55.6588808 144.690103,61.8201946 C144.757057,66.3894161 144.575243,70.9670316 144.944754,75.5250608 C145.603373,83.7793187 146.407388,92.2462287 149.94281,99.8510584 C151.012682,102.098175 152.25092,104.31983 154.088947,106.037555 C156.50071,108.17247 159.290949,110.030657 162.484875,110.707506 C165.77377,111.331192 169.188731,111.476971 172.483229,110.827822 C172.50536,111.040474 172.544861,111.468577 172.564471,111.681229 C172.589684,111.457384 172.64011,111.009976 172.665043,110.786131 C174.085375,110.629161 175.469288,110.232117 176.822386,109.784428 C178.640523,109.079039 180.214934,107.89854 181.918212,106.972384 C184.223521,105.111679 186.361303,103.046715 188.381144,100.880742 C190.224214,98.838163 191.571988,96.4206448 193.065158,94.1262409 C194.888898,91.3390998 196.348451,88.3426642 197.737967,85.3232847 C198.732479,83.1296107 199.360003,80.80191 200.105187,78.5186983 C200.9064,75.6898662 201.707613,72.8470438 202.108219,69.928674 C202.346342,68.7982603 202.432907,67.6398662 202.755353,66.5290389 C202.929043,66.4422993 203.276422,66.26882 203.450111,66.1820803 C203.962495,69.7412044 203.623521,73.3562895 203.710645,76.9375182 C203.480927,82.161764 203.595786,87.3938443 203.444508,92.6236861 C203.211988,97.9341119 203.391281,103.25629 203.228797,108.572591 C203.152878,110.329489 203.306957,112.106533 203.0016,113.846922 C202.855925,113.844124 202.564575,113.841326 202.421701,113.838528 C201.822192,111.673114 201.242293,109.434672 199.875188,107.604745 C198.309181,105.477944 195.406885,104.630134 192.871578,105.116995 C190.29425,105.701788 187.904898,106.857664 185.478568,107.862165 C182.186871,109.333942 178.808049,110.62944 175.320531,111.555596 C171.874475,112.35556 168.299832,112.674818 164.773095,112.307993 C162.453499,111.997409 160.136705,111.608479 157.884344,110.970523 C153.432849,109.425998 149.003766,107.646436 145.120684,104.93792 C143.098042,103.421375 141.123024,101.846071 139.204315,100.203613 C135.063781,96.2611557 131.264742,91.9101825 128.359925,86.96882 C127.222258,85.0969221 126.379304,83.0739294 125.457629,81.0929075 C124.104531,77.9199148 122.8803,74.6515085 122.353629,71.2269708 C121.622452,66.5542214 121.106986,61.8255109 121.244257,57.0856083 C121.193831,54.2399878 121.7149,51.4363382 122.1043,48.6270925 C122.493701,46.0472871 123.44311,43.6017883 124.068113,41.077944 C125.42121,37.3537348 126.880762,33.6435158 128.894721,30.2186983 C130.962466,26.385365 133.623838,22.9185766 136.36337,19.5469221 C139.288078,16.2032482 142.604988,13.2401095 146.084381,10.4896229 C148.202273,8.61212895 150.605912,7.09278589 153.068381,5.7133455 C156.505473,3.65705596 160.326643,2.2636253 164.248664,1.4689781 Z" id="Shape"></path>
            <path d="M473.1667,2.44270073 C487.823856,2.38394161 502.478209,2.33917275 517.135365,2.28880779 C523.959682,2.24403893 530.786521,2.42311436 537.611119,2.3 C537.658744,2.58819951 537.757074,3.16459854 537.80722,3.45279805 C537.784809,3.15620438 537.742787,2.56021898 537.720095,2.2636253 C542.163186,2.38114355 546.609077,2.23844282 551.055249,2.28600973 C555.436708,2.33357664 559.815645,2.18807786 564.199625,2.19647202 C565.633964,2.22445255 567.093516,2.05656934 568.505444,2.42871046 C568.880838,3.93126521 568.712751,5.48418491 568.74917,7.01472019 C568.796794,14.1889294 568.740765,21.3659367 568.754773,28.540146 C568.589487,31.990146 568.625906,35.4457421 568.600693,38.8985401 C568.578282,40.1688564 568.737964,41.4475669 568.525054,42.706691 C568.270123,42.6927007 567.762781,42.6647202 567.510931,42.6507299 C566.8299,39.8694647 567.04281,36.9482968 566.429574,34.1502433 C565.376231,29.0577859 563.081848,24.2759124 560.070296,20.0536496 C558.341805,17.7144769 556.632924,15.3417275 554.537444,13.3103406 C548.365863,7.75340633 540.353733,4.07956204 531.999827,3.74099757 C530.408606,3.75218978 528.820188,3.74379562 527.23457,3.77737226 C526.256866,3.80255474 525.256751,3.71581509 524.32387,4.05158151 C523.889646,5.83673966 524.068939,7.67785888 524.026917,9.49379562 C523.920182,21.063747 523.984895,32.6309002 523.965005,44.1980535 C523.967806,47.1835766 523.931388,50.1718978 524.063056,53.1546229 C524.01263,54.0052311 524.928982,54.0555961 525.559307,54.0723844 C532.890686,54.0555961 540.378666,50.5300487 544.359518,44.2512165 C545.824673,42.0827251 546.567056,39.5113139 546.796774,36.9231144 C546.967662,35.8318735 546.852803,34.6818735 547.309438,33.6465937 C547.561568,33.6717762 548.065828,33.7193431 548.32076,33.7417275 C548.5925,37.9807786 548.376788,42.236618 548.511258,46.4812652 C548.662536,48.1600973 548.494449,49.8417275 548.497251,51.5233577 C548.701756,55.2419708 548.522464,58.963382 548.460832,62.6847932 C548.502573,68.3676399 548.396399,74.0504866 548.34009,79.7358516 C548.281539,80.3626156 548.314877,81.6052311 547.353981,81.2663869 C546.748869,80.3209246 547.115858,79.1345499 547.003801,78.0824818 C546.835714,73.1383212 545.891347,67.8021533 542.40383,64.0527616 C540.450943,61.9458273 538.084003,60.2781873 535.646747,58.7840268 C532.268205,56.7610341 528.253736,55.6222263 524.306781,56.1454623 C523.931108,57.0604258 523.998342,58.062129 523.981814,59.0274574 C523.967526,65.0040998 523.886565,70.977944 523.822131,76.9517883 C523.816529,87.3045864 523.802521,97.6573844 523.74089,108.007384 C523.598016,108.751667 524.331994,109.123808 524.973245,109.051058 C528.430507,109.073443 531.904017,109.171375 535.352875,108.807628 C538.022371,108.413102 540.712038,108.07174 543.328586,107.383418 C545.841482,106.739866 548.281819,105.838613 550.673973,104.83691 C553.184347,103.745949 555.464722,102.207019 557.67198,100.606533 C557.823258,100.732165 558.125814,100.98427 558.277092,101.109903 C558.15663,100.961886 557.918507,100.665012 557.797765,100.516995 C559.795474,99.0813139 561.764609,97.5454623 563.291396,95.595219 C565.476523,93.0126156 567.367497,90.149927 568.658963,87.0135888 C569.533014,84.8618856 570.401461,82.7017883 571.048595,80.4661436 C571.664913,77.8384915 572.101938,75.1638321 572.26162,72.4665085 C572.345664,71.6242944 572.373398,70.7485036 572.774284,69.981837 C573.146877,70.1553163 573.723974,70.2756326 573.625923,70.821253 C573.79401,77.7072628 573.533476,84.5960706 573.586423,91.4848783 C573.48277,97.4671168 573.704084,103.460547 573.337095,109.434392 C573.370712,109.83983 573.014929,110.197981 572.611521,110.142019 C566.081074,110.438893 559.537181,110.262616 553.001412,110.366144 C542.241066,110.430219 531.480719,110.349075 520.720373,110.466594 L520.552286,110.58719 C519.972387,110.564805 519.39529,110.561727 518.826596,110.561727 C511.923838,110.662457 505.018279,110.634757 498.115521,110.570122 C495.770712,110.530949 493.423102,110.693236 491.086697,110.491776 C490.027752,110.589988 488.934908,110.68764 487.920786,110.304307 C487.537268,109.464891 488.523096,109.263431 489.142215,109.310998 C492.781291,109.280219 496.420087,109.302603 500.061964,109.232652 C500.667076,109.224538 501.269666,109.115134 501.868895,108.986423 C502.112621,106.051265 501.891307,103.099319 501.938931,100.158564 C501.860491,92.4135523 501.829675,84.6710584 501.784852,76.926326 C501.549531,63.9713382 501.636375,51.0079562 501.51031,38.0473723 C501.43215,29.2866667 501.328497,20.520365 501.465768,11.7568613 C501.289277,9.98849148 501.583428,8.22012165 501.462686,6.45175182 C501.387047,5.53958637 501.490981,4.5686618 500.994845,3.75442822 C499.210605,3.58094891 497.414879,3.84676399 495.635682,3.64810219 C494.772838,3.53058394 493.913074,3.66489051 493.058354,3.69007299 C490.215168,3.74883212 487.368621,3.67608273 484.528237,3.84396594 C483.998484,5.10309002 484.219798,6.49624088 484.166851,7.82279805 C484.183659,14.4513869 484.124829,21.0743796 484.141357,27.7001703 C484.099616,35.4395864 484.214475,43.1845985 484.035183,50.9184185 C484.06852,58.8481022 483.981955,66.7749878 484.020895,74.7046715 C484.057314,79.0864234 483.998484,83.4681752 483.950859,87.8527251 C483.995682,94.6603893 483.906036,101.468054 483.827876,108.278516 C483.670715,110.287518 483.79706,112.307433 483.56454,114.311119 C482.880988,114.034112 482.455168,113.43253 482.043356,112.864526 C478.841025,108.211363 475.521594,103.644939 472.411991,98.9274209 C469.736332,95.0742214 467.162085,91.1544282 464.49511,87.3012287 C462.519812,84.5619343 460.774793,81.668747 458.807899,78.9241363 C455.493791,74.20382 452.300425,69.4023601 449.039264,64.6481873 C445.963558,60.3279927 443.1341,55.8427129 440.122547,51.4833455 C432.396165,40.1596229 424.854677,28.7127859 417.038648,17.4534185 C416.450345,16.6363869 415.932078,15.7410097 415.111255,15.128236 C414.615119,18.9335888 415.114056,22.7781144 414.962778,26.6030535 C415.0048,41.891618 415.06363,57.1829805 415.108453,72.471545 C415.032814,84.2292457 415.251607,95.9810706 415.301753,107.738212 C415.290547,108.350985 415.352179,108.972153 415.593103,109.548552 C419.73924,109.744416 423.896583,109.459294 428.045522,109.531764 C428.510562,109.489793 429.129681,109.750012 429.078975,110.320815 C428.622339,110.886022 427.824208,110.656582 427.199206,110.734647 C420.299249,110.997664 413.388087,110.983954 406.485609,111.025645 C404.376121,111.07629 402.230215,111.353017 400.148742,110.905328 C400.204771,110.463236 400.372858,109.884039 400.921941,109.878443 C403.146287,109.786107 405.376237,109.842068 407.606186,109.786107 C409.628829,109.732944 411.66828,109.881241 413.676916,109.553869 C414.066316,108.616521 413.93745,107.584039 413.962663,106.599124 C413.822591,97.8328224 413.934648,89.0665207 413.707731,80.3055353 C413.747232,73.1201338 413.539645,65.9347324 413.573542,58.752129 C413.346625,50.3635645 413.430669,41.9638078 413.156127,33.5752433 C413.108503,25.7378954 412.895593,17.9033455 412.747116,10.0659976 C412.635058,8.25565693 412.932012,6.41453771 412.520199,4.63217762 C411.278879,4.2656326 409.97929,4.39714112 408.709955,4.36636253 C405.90571,4.32998783 403.098943,4.41113139 400.294417,4.35517032 C399.69771,4.3803528 398.899578,4.05018248 399.084474,3.32268856 C399.361817,2.81064477 399.964127,2.88339416 400.468107,2.85261557 C406.765753,2.69872263 413.066481,2.67074209 419.36973,2.57560827 C422.358871,2.53923358 425.350813,2.62317518 428.339954,2.46648418 C430.477456,2.55042579 432.631766,2.34057178 434.763665,2.61478102 C435.461225,2.67354015 435.861831,3.33108273 436.242827,3.84312652 C441.615997,12.0610097 447.146048,20.178163 452.541629,28.382056 C455.673923,33.0771898 458.679593,37.8590633 462.032921,42.4003041 C462.937788,43.701399 463.7757,45.0500608 464.733794,46.3203771 C464.554221,46.418309 464.198718,46.6141727 464.019425,46.7121046 C464.209923,46.6449513 464.587838,46.5106448 464.775815,46.4462895 C466.176537,48.6791363 467.627685,50.8840024 468.986105,53.1476277 C472.38986,58.3184307 475.776806,63.5032238 479.18084,68.6768248 C480.155463,70.0506691 480.917456,71.6091849 482.189311,72.7535888 C482.609528,70.9180657 482.455448,69.0265815 482.503073,67.1602798 C482.480661,60.4337591 482.662755,53.7100365 482.592719,46.9891119 C482.609528,39.1601582 482.637542,31.3312044 482.648748,23.5022506 C482.872864,21.7254866 482.559102,19.9515207 482.640344,18.1719586 C482.584315,13.4712287 482.713181,8.76490268 482.519882,4.06417275 C481.219731,3.61648418 479.824892,3.86551095 478.480199,3.81794404 C476.530114,3.90188564 474.574986,3.79555961 472.630504,3.94385645 C471.355847,4.01380779 470.075867,3.96344282 468.826143,3.71721411 C468.803731,3.37305353 468.789724,3.02609489 468.786923,2.68193431 C470.213978,2.29440389 471.704347,2.46508516 473.1667,2.44270073 Z" id="Shape"></path>
            <path d="M570.547697,2.70851582 C576.920982,2.37554745 583.313597,2.49306569 589.695567,2.38673966 C599.413776,2.32238443 609.131986,2.34756691 618.847674,2.50425791 C619.402079,2.54902676 620.480916,2.54343066 620.340843,3.38004866 C620.413681,3.87530414 619.724526,3.87810219 619.410764,3.98442822 C616.359991,4.13272506 613.300814,3.9620438 610.252843,4.05717762 C609.754466,4.05437956 609.289427,4.22506083 608.841196,4.38454988 C609.339573,6.90559611 610.199896,9.34270073 610.94508,11.7993917 C616.90095,31.0388078 622.79799,50.2978102 628.79308,69.523236 C629.409398,71.5210462 629.989297,73.5356448 630.793311,75.4690998 C630.899766,75.4467153 631.112956,75.3991484 631.219131,75.3739659 C632.849571,71.036983 634.009649,66.5377129 635.382077,62.1139903 C636.771593,57.6594891 638.012632,53.1574209 639.461259,48.719708 C640.8984,43.4761557 642.618487,38.3109489 643.915275,33.0282238 C644.184214,31.9789538 643.727578,30.9492701 643.444632,29.9587591 C640.906244,21.8388078 638.474871,13.6908759 635.945167,5.57092457 C635.743183,4.98613139 635.54428,4.1243309 634.785089,4.09075426 C631.8968,3.93686131 628.997305,4.07956204 626.109017,3.97043796 C625.585147,3.98163017 624.725103,3.74659367 624.921204,3.0526764 C625.148121,2.42591241 625.868092,2.61058394 626.391962,2.56301703 C630.930302,2.62177616 635.46584,2.42311436 640.004179,2.36715328 C640.091304,3.03588808 640.186273,3.70182482 640.326345,4.36216545 C640.264713,3.69622871 640.186273,3.03029197 640.079818,2.36995134 C648.590605,2.32238443 657.101392,2.31399027 665.612179,2.39233577 C667.954186,2.35875912 670.298715,2.33917275 672.644084,2.42311436 C673.103521,2.45109489 673.694625,2.52944039 673.851506,3.05547445 C673.870836,3.56472019 673.408878,3.88090024 672.94664,3.83613139 C668.540248,4.17469586 664.108084,3.79695864 659.701692,4.14111922 C659.617649,4.28941606 659.449562,4.58600973 659.365519,4.73430657 C663.349173,18.4167883 667.565346,32.0293187 671.661057,45.6810219 C672.910501,49.5423358 673.896609,53.4819951 675.182472,57.3349148 C676.546775,61.6886861 677.815549,66.073236 679.107295,70.4521898 C679.578218,71.9351582 679.98975,73.4489051 680.662097,74.8619221 C680.762949,74.8339416 680.970536,74.7779805 681.071108,74.75 C682.354169,71.6049878 683.197684,68.3060827 684.326386,65.1079075 C685.5565,61.1682482 686.850487,57.2509732 688.144754,53.3336983 C689.935157,47.5081509 691.786631,41.7021898 693.629981,35.8934307 L693.386256,35.8626521 C693.756046,35.7843066 694.139844,35.7143552 694.523922,35.6164234 C694.305409,35.6220195 693.865583,35.6304136 693.64707,35.6360097 C696.151281,28.0840633 698.473678,20.4705596 700.986853,12.9214112 C701.787786,10.1961071 702.754565,7.51836983 703.479858,4.77347932 C703.810709,4.14671533 703.166097,3.74379562 702.603006,3.81654501 C698.523824,3.73540146 694.445201,3.83333333 690.366299,3.78856448 C689.951685,3.7689781 689.220508,3.64586375 689.312956,3.0946472 C689.183809,2.43710462 690.05786,2.32238443 690.534105,2.33357664 C699.313831,2.30559611 708.096358,2.30839416 716.878885,2.3363747 C717.668892,2.33077859 718.467304,2.36715328 719.262914,2.45109489 C719.29373,2.79525547 719.324546,3.13941606 719.366568,3.4863747 C718.193043,3.80815085 716.971333,3.74939173 715.772315,3.75778589 C712.878423,3.75778589 709.987613,3.76058394 707.096243,3.77457421 C706.496734,3.76058394 705.925239,3.89489051 705.381759,4.09355231 C704.017456,7.79537713 702.922091,11.5895377 701.739882,15.3529197 C697.083882,30.0510949 692.324508,44.7156934 687.847521,59.4698297 C685.858495,66.2047445 683.667766,72.8781022 681.729167,79.6270073 C678.168531,90.8835766 674.781305,102.196107 671.027651,113.391119 C670.85116,113.872384 670.587824,114.320073 670.360907,114.77056 C669.405614,113.410985 669.08625,111.748662 668.525961,110.209732 C665.679694,101.748698 663.200136,93.1723844 660.493941,84.6663017 C659.07641,80.2649635 657.729196,75.8443187 656.322591,71.4399027 C652.787168,60.5554745 649.66636,49.5451338 646.150547,38.6551095 C645.951645,38.003163 645.657493,37.376399 645.192453,36.8755474 C644.105213,38.890146 643.659783,41.1649635 642.934209,43.3222628 C638.477112,57.7798054 634.073242,72.2569343 629.876959,86.7925426 C627.341372,94.5937956 625.089291,102.484027 622.60413,110.302068 C622.077739,111.717883 621.733161,113.240024 620.81989,114.46837 C619.553357,112.129477 618.954129,109.504903 618.066071,107.011837 C614.35976,95.878382 610.720404,84.7197445 607.095616,73.558309 C599.873493,51.6271655 592.993147,29.5840998 585.927625,7.59979319 C585.538224,6.51974453 585.3368,5.35575426 584.751298,4.35684915 C584.316794,3.88957421 583.602426,3.99310219 583.036814,3.8839781 C579.184829,3.78324818 575.32696,3.86998783 571.477776,3.68811436 C571.136,3.63495134 570.802908,3.56779805 570.480462,3.49225061 C570.494469,3.23175182 570.516881,2.96873479 570.547697,2.70851582 Z" id="Shape"></path>
            <path d="M207.651437,3.53673966 C209.318016,3.36885645 210.996081,3.47798054 212.668543,3.4863747 C224.330955,3.54793187 235.996448,3.40243309 247.658579,3.58430657 C250.457222,3.82773723 253.272673,3.58990268 256.074117,3.83053528 C261.576153,4.32579075 267.109005,5.16800487 272.269265,7.22457421 C275.939437,8.4836983 279.205921,10.6381995 282.346339,12.8710462 C285.329597,15.470438 287.772736,18.6574209 289.666513,22.1242092 C293.067466,28.2211679 292.706079,36.0781022 289.15665,42.029562 C286.195523,46.3217762 281.699206,49.2905109 277.029199,51.4562044 C274.661978,52.58382 272.059437,53.0678832 269.627783,54.0164234 C271.384569,54.9062044 273.362108,55.1720195 275.211061,55.8099757 C279.771812,57.3181265 284.259726,59.3159367 287.957632,62.4329684 C290.061796,64.4279805 292.305753,66.3530414 293.810129,68.8712895 C295.919616,72.13382 297.407183,75.8412409 297.832722,79.7193431 C298.090735,83.3791971 297.992404,87.1537713 296.678527,90.6233577 C295.465502,94.8540146 293.000231,98.7125304 289.672116,101.597324 C287.582238,103.379684 285.377502,105.044526 282.94865,106.343102 C279.794224,108.346229 276.21706,109.608431 272.572101,110.355511 C267.557796,111.040754 262.503991,111.544684 257.4387,111.505231 C244.456809,111.497117 231.477718,111.743345 218.495827,111.480049 C215.699986,111.446472 212.901063,111.43528 210.105502,111.424088 C209.469294,111.415973 208.844852,111.301253 208.222651,111.203041 C208.21985,110.853285 208.228534,110.50073 208.242261,110.153771 C211.096933,109.9691 213.96281,110.148175 216.823084,110.06983 C218.464731,110.005754 220.145597,110.260097 221.756427,109.837591 C221.910507,108.765937 221.966536,107.686168 221.932918,106.605839 C221.946926,98.0298054 221.910507,89.4506934 221.924514,80.8749392 C221.677987,63.7116788 221.823942,46.5456204 221.725612,29.379562 C221.835148,22.2976886 221.633164,15.213017 221.658657,8.1283455 C221.680788,7.14343066 221.60543,6.15851582 221.41185,5.19318735 C219.716976,4.7986618 217.966074,4.95255474 216.243466,4.89099757 C213.388794,4.79026764 210.506108,4.9973236 207.673568,4.5636253 C207.654238,4.22226277 207.645834,3.87810219 207.651437,3.53673966 L207.651437,3.53673966 Z M243.910527,5.48418491 C243.660918,9.42944039 243.927336,13.38309 243.868505,17.3339416 C243.829285,21.536618 243.865704,25.7392944 243.849175,29.9419708 C243.910807,36.9315085 243.692014,43.9210462 243.919212,50.9077859 C243.919212,51.5261557 244.008578,52.1389294 244.140526,52.743309 C244.641704,52.846837 245.149045,52.9587591 245.667032,52.9867397 C249.039971,53.1434307 252.424116,53.1490268 255.794253,52.9111922 C257.973776,52.6705596 260.25135,52.6285888 262.24878,51.6128954 C264.873733,50.2698297 267.128895,48.1153285 268.451177,45.4655718 C269.381256,43.3726277 269.907928,41.1285888 270.510518,38.9265207 C271.670316,34.3545012 271.462729,29.5950122 271.193791,24.9306569 C270.689531,19.7094891 269.510123,14.1049878 265.680549,10.246472 C263.91844,8.6459854 261.836968,7.37287105 259.567798,6.6229927 C254.914879,5.08965937 249.95044,5.06727494 245.103942,5.21277372 C244.69213,5.2323601 244.299928,5.37506083 243.910527,5.48418491 L243.910527,5.48418491 Z M244.851812,54.992944 C244.319818,54.9705596 243.840771,55.407056 243.902123,55.9526764 C243.518325,68.4487835 243.602368,80.9535645 243.523928,93.4577859 C243.588081,98.9083942 243.395061,104.36208 243.579957,109.809611 C244.988803,110.240511 246.47665,110.013589 247.924996,110.072348 C252.651032,109.980012 257.480442,110.466873 262.102825,109.213625 C264.484052,108.522226 266.986022,107.920925 269.003061,106.398504 C270.700736,105.201217 271.885467,103.446557 272.93909,101.68938 C274.883012,97.9567762 275.292023,93.6844282 275.513337,89.5486253 C275.597381,87.3160584 275.855113,85.0801338 275.634079,82.8472871 C275.546955,80.3961922 275.40156,77.9450973 275.115532,75.5079927 C274.698397,71.7809854 274.278181,67.9140754 272.390007,64.5927859 C272.308765,64.1255109 271.81263,64.1646837 271.471134,64.1087226 C271.61961,64.0723479 271.919365,63.9995985 272.067841,63.9604258 C271.277834,62.9139538 270.487827,61.8674818 269.616578,60.888163 C266.876765,57.9446107 263.050273,56.2377981 259.119567,55.5886496 C256.528231,55.191326 253.931012,54.6568978 251.294853,54.7604258 C249.143625,54.729927 246.994917,54.8642336 244.851812,54.992944 Z" id="Shape"></path>
            <path d="M49.2886065,28.7751825 C55.9280289,26.9368613 63.2117834,27.5720195 69.4169819,30.579927 C77.7540794,34.3796837 84.0041011,42.2841849 85.9062816,51.2239659 C87.4274657,58.3058394 86.2757921,65.9193431 82.6538051,72.2037713 C78.9643032,79.0422141 72.3725054,84.1878345 64.906657,86.2894526 C60.0321444,87.7441606 54.768231,87.870073 49.8376895,86.6109489 C44.0975307,85.2259124 38.8140072,82.0358516 34.8555668,77.6655718 C32.1101516,74.8367397 30.3564477,71.2692214 28.7428159,67.7212895 C27.5213863,63.5577859 26.711769,59.1900243 27.235639,54.8418491 C27.6922744,49.5143552 29.6925054,44.3519465 32.8245199,40.0261557 C36.8473935,34.5811436 42.7192202,30.4959854 49.2886065,28.7751825 Z" id="Shape"></path>
        </g>
    </g>
</svg>