<?xml version="1.0" encoding="UTF-8"?>
<svg width="871px" height="155px" viewBox="0 0 871 155" version="1.1" xmlns="http://www.w3.org/2000/svg" xmlns:xlink="http://www.w3.org/1999/xlink">
    <!-- Generator: Sketch 42 (36781) - http://www.bohemiancoding.com/sketch -->
    <title>guardian</title>
    <desc>Created with Sketch.</desc>
    <defs></defs>
    <g id="Page-1" stroke="none" stroke-width="1" fill="none" fill-rule="evenodd">
        <g id="guardian" fill-rule="nonzero" fill="#004BD3">
            <path d="M13,94.47 L13,49.55 L0.56,49.55 L0.56,37.27 L13,35.6 L13,20.28 L39.84,16.51 L39.84,35.61 L57.64,35.61 L57.64,49.61 L39.84,49.61 L39.84,92.21 C39.84,100.21 42.07,104.31 49.94,104.31 C52.74,104.31 56.56,104.01 58.51,103.61 L58.51,114 C54.21,116.54 45.01,118.7 36.51,118.7 C20.51,118.7 13.01,111.65 13.01,94.47 L13,94.47 Z M191.95,42.73 C198.69,42.73 202.33,43.93 202.33,67.75 L179.83,69.07 C180.13,47.47 183.39,42.73 191.95,42.73 L191.95,42.73 Z M180.05,78.76 L228.43,78.76 C228.43,44.7 216.73,33.84 192.4,33.84 C168.23,33.84 152.37,49.4 152.37,76.12 C152.37,103.72 166.75,118.99 194.63,118.99 C209.61,118.99 221.71,112.29 225.47,107.19 L225.47,99.29 C219.84,100.99 214.05,102.09 203.67,102.09 C189.02,102.09 181.47,94.49 180.05,78.69 L180.05,78.76 Z M60.83,109.6 L69.43,105.64 L69.43,17.34 L60.38,13.14 L60.38,5.77 L93.84,0.37 L96.11,0.37 L96.11,44.55 L97.01,44.55 C104.31,37.95 114.11,33.83 125.01,33.83 C138.71,33.83 145.51,40.65 145.51,55.53 L145.51,105.63 L154.21,109.6 L154.21,117.07 L109.91,117.07 L109.91,109.6 L118.61,105.63 L118.61,61.6 C118.61,53.36 115.01,50.28 107.71,50.28 C103.71,50.28 99.91,51.01 96.61,52.34 L96.61,105.64 L105.31,109.62 L105.31,117.09 L60.9,117.09 L60.9,109.59 L60.83,109.6 Z" id="Shape" fill-opacity="0.621999547"></path>
            <path d="M648,39.13 L648,46.51 L657.04,50.71 L657.04,105.71 L648.42,109.71 L648.42,117.21 L692.65,117.21 L692.65,109.81 L684.03,105.81 L684.03,33.81 L681.76,33.81 L648,39.2 L648,39.13 Z M739.7,101.38 L739.7,79.45 L733.42,80.05 C727.17,80.65 722.05,84.8 722.05,92.57 C722.05,101.52 726.97,104.47 732.15,104.47 C735.15,104.47 738.2,102.99 739.69,101.37 L739.7,101.38 Z M720.66,44.74 L714.96,61.3 L701,61.3 L701,40 C708.54,37.66 717.73,33.84 731.96,33.84 C753.61,33.84 766.62,40.24 766.62,58.44 L766.62,105.64 L775.22,109.64 L775.22,115.76 C772.58,117.18 766.6,118.99 760.07,118.99 C751.62,118.99 744.04,116.29 742.79,107.49 L741.99,107.49 C738.39,114.69 728.79,119.09 718.69,119.09 C704.29,119.09 695.19,109.79 695.19,96.29 C695.19,79.69 706.09,76.99 723.89,73.29 L739.39,70.59 L739.39,60 C739.39,49.58 736.19,44.4 725.89,44.4 C724.49,44.4 721.99,44.58 720.39,44.74 L720.66,44.74 Z M777.42,109.61 L786.02,105.71 L786.02,50.71 L776.97,46.51 L776.97,39.21 L810.44,33.91 L812.71,33.91 L812.71,44.71 L813.61,44.71 C820.91,38.11 830.71,34.01 841.61,34.01 C855.31,34.01 862.11,40.81 862.11,55.71 L862.11,105.81 L870.81,109.81 L870.81,117.31 L826.51,117.31 L826.51,109.91 L835.21,105.99 L835.21,61.6 C835.21,53.36 831.61,50.28 824.31,50.28 C820.31,50.28 816.51,51.01 813.21,52.34 L813.21,105.64 L821.81,109.62 L821.81,117.09 L777.61,117.09 L777.61,109.59 L777.42,109.61 Z M610.42,17.41 L601.4,13.31 L601.4,5.91 L635.14,0.51 L637.41,0.51 L637.41,103.21 L646.01,107.91 L646.01,114.91 L614.01,118.61 L611.81,118.61 L611.81,110.21 L610.91,110.21 C607.51,114.51 600.61,119.01 590.51,119.01 C575.71,119.01 558.01,109.61 558.01,78.51 C558.01,45.81 576.11,34.01 597.61,34.01 C602.11,34.01 607.41,35.01 610.71,37.41 L610.71,17.41 L610.42,17.41 Z M610.42,102.81 L610.42,47.9 C608.32,46.3 606.12,44.97 601.22,44.97 C592.78,44.97 586.32,52.57 586.32,75.47 C586.32,95.53 591.42,104.27 602.1,104.27 C606.25,104.27 608.58,103.43 610.4,102.69 L610.42,102.81 Z M275.68,144.11 C260.94,144.11 255.88,138.91 255.88,133.31 C255.88,129.41 256.92,126.71 259,124.21 L287.53,124.21 C294.2,124.21 297.23,126.21 297.23,130.41 C297.25,138.81 292.58,144.11 275.68,144.11 L275.68,144.11 Z M275.91,43.31 C281.81,43.31 285.61,45.91 285.61,62.11 C285.61,78.31 281.8,80 276,80 C270.2,80 266.46,78.65 266.46,62.13 C266.46,45.63 270.16,43.33 276.04,43.33 L275.91,43.31 Z M293.81,99.61 L264.81,99.61 C261.71,99.61 259.11,97.21 259.11,94.41 C259.11,92.21 260.71,89.91 262.71,88.41 C267.11,89.71 270.71,90.11 276.11,90.11 C297.01,90.11 311.31,80.61 311.31,62.91 C311.31,55.01 308.01,50.51 302.81,45.91 L302.81,45.31 L316.21,50.01 L318.01,50.11 L318.01,33.8 L316.51,33.8 L295.88,37.9 L294.73,37.9 C289.59,36 282.43,34 275.93,34 C255.03,34 240.57,44.37 240.57,61.98 C240.57,72.71 245.97,80.7 254.04,85.12 L254.04,85.97 C249.38,89.25 240.44,95.99 240.44,104.62 C240.44,110.92 244.6,117.15 253.3,119.02 L253.3,119.89 C244.15,121.79 233.9,124.79 233.9,135.29 C233.9,146.09 249.55,154.09 275.06,154.09 C306.76,154.09 320.48,141.89 320.48,122.59 C320.48,106.69 311.68,99.29 293.78,99.29 L293.81,99.61 Z M496.91,39.21 L496.91,46.61 L506.01,50.81 L506.01,105.81 L497.41,109.81 L497.41,117.31 L544,117.31 L544,109.91 L532.9,105.91 L532.9,60.6 C537.5,58.4 543.55,57.66 550.8,57.66 C553.18,57.66 556,57.96 557.63,58.39 L557.63,34.7 C556.73,34.4 554.96,34.26 553.63,34.26 C544.73,34.26 537.46,39.99 532.71,50.86 L531.91,50.86 L531.91,33.74 L529.61,33.74 L496.91,39.12 L496.91,39.21 Z M459.71,101.51 L459.71,79.51 L453.51,80.11 C447.31,80.71 442.21,84.91 442.21,92.71 C442.21,101.71 447.11,104.61 452.31,104.61 C455.31,104.61 458.37,103.11 459.85,101.51 L459.71,101.51 Z M440.61,44.81 L434.91,61.41 L420.91,61.41 L420.91,40 C428.51,37.66 437.71,33.84 451.91,33.84 C473.61,33.84 486.61,40.24 486.61,58.44 L486.61,105.64 L495.21,109.64 L495.21,115.76 C492.61,117.18 486.61,118.99 480.11,118.99 C471.71,118.99 464.11,116.29 462.91,107.49 L462.11,107.49 C458.51,114.69 448.91,119.09 438.87,119.09 C424.5,119.09 415.47,109.79 415.47,96.29 C415.47,79.69 426.44,76.99 444.23,73.29 L459.81,70.59 L459.81,60 C459.81,49.58 456.67,44.4 446.31,44.4 C444.96,44.4 442.41,44.58 440.79,44.74 L440.61,44.81 Z M329.21,50.71 L320.21,46.51 L320.21,39.21 L354.01,33.91 L356.31,33.91 L356.31,91 C356.31,100.25 360.84,101.9 367.66,101.9 C372.66,101.9 374.66,101 377.36,99.97 L377.36,50.7 L368.26,46.5 L368.26,39.13 L401.96,33.75 L404.16,33.75 L404.16,103.15 L413.16,107.85 L413.16,114.89 L380.36,118.49 L378,118.49 L377.97,107.69 L377.07,107.69 C371.89,114.09 363.34,118.79 352.37,118.79 C336.07,118.79 329.1,107.19 329.1,93.09 L329.1,50.7 L329.21,50.71 Z M670,0.3 C678,0.3 684.45,6.77 684.45,14.76 C684.45,22.74 677.98,29.22 669.99,29.22 C661.99,29.22 655.49,22.82 655.49,14.82 C655.49,6.82 661.99,0.42 669.99,0.42 L670,0.3 Z M866.5,112.66 L883.74,112.7 L866.5,112.66 Z" id="Shape"></path>
        </g>
    </g>
</svg>