<?xml version="1.0" encoding="UTF-8"?>
<svg width="796px" height="198px" viewBox="0 0 796 198" version="1.1" xmlns="http://www.w3.org/2000/svg" xmlns:xlink="http://www.w3.org/1999/xlink">
    <!-- Generator: Sketch 42 (36781) - http://www.bohemiancoding.com/sketch -->
    <title>lifehacker</title>
    <desc>Created with Sketch.</desc>
    <defs></defs>
    <g id="Page-1" stroke="none" stroke-width="1" fill="none" fill-rule="evenodd">
        <g id="lifehacker" transform="translate(398.000000, 98.986670) scale(1, -1) translate(-398.000000, -98.986670) translate(0.000000, -0.013330)" fill-rule="nonzero" fill="#004BD3">
            <polyline id="path14" points="30.4978659 2.21354661 0 2.21354661 0 196.023995 30.4978659 194.057328 30.4978659 2.21354661"></polyline>
            <path d="M80.4245313,2.21354661 L49.9265321,2.21354661 L49.9265321,140.438663 L80.4245313,138.71733 L80.4245313,2.21354661 Z M65.175465,182.497329 C74.7677315,182.497329 82.6379979,174.626662 82.6379979,165.034663 C82.6379979,155.441329 74.7677315,147.570663 65.175465,147.570663 C55.5833319,147.570663 47.7130655,155.441329 47.7130655,165.034663 C47.7130655,174.626662 55.5833319,182.497329 65.175465,182.497329 L65.175465,182.497329 Z" id="path16"></path>
            <path d="M153.22533,112.646931 L153.22533,82.1489313 L130.351597,82.1489313 L130.351597,2.34687994 L99.8535975,2.34687994 L99.8535975,153.966663 C99.8535975,177.085329 119.037464,197.991995 141.66533,197.991995 C149.28933,197.991995 155.438663,195.777328 156.914663,194.794662 L155.683996,165.526663 L141.66533,165.526663 C135.515997,165.526663 130.351597,160.361329 130.351597,153.966663 L130.351597,112.646931 L153.22533,112.646931" id="path18"></path>
            <path d="M196.059995,86.0843978 L218.933328,86.0843978 L218.933328,100.348397 C218.933328,106.744264 213.767995,111.908797 207.618661,111.908797 C201.223995,111.908797 196.059995,106.744264 196.059995,100.348397 L196.059995,86.0843978 Z M165.561329,100.348397 C165.561329,123.46933 184.253329,142.406663 207.618661,142.406663 C230.738661,142.406663 249.43066,123.46933 249.43066,100.348397 L249.43066,70.8338649 C249.43066,62.2265318 242.543994,55.5863986 234.182661,55.5863986 L196.059995,55.5863986 L196.059995,42.3041323 C196.059995,35.9109324 201.223995,30.7442659 207.618661,30.7442659 L236.887994,30.7442659 L237.871994,4.91874654 L210.325328,0.738541315 C183.761329,-3.68906657 165.561329,19.1854662 165.561329,42.3041323 L165.561329,100.348397 L165.561329,100.348397 Z" id="path20"></path>
            <path d="M275.51066,2.21354661 L275.51066,194.794662 L295.187993,194.794662 L295.187993,136.258663 C300.598659,137.979997 309.206659,138.71733 315.109325,138.71733 C336.015992,138.71733 352.247991,119.779197 352.247991,98.3806642 L352.247991,2.21354661 L333.063992,2.21354661 L333.063992,98.3806642 C333.063992,108.957331 324.455992,117.31973 313.879992,117.31973 L295.187993,117.31973 L295.187993,2.21354661 L275.51066,2.21354661" id="path22"></path>
            <path d="M424.231989,39.3521323 L424.231989,72.5562649 L405.293323,72.5562649 C394.718657,72.5562649 386.35599,64.1931984 386.35599,53.6187987 L386.35599,39.3521323 C386.35599,28.7775993 394.718657,20.1693328 405.293323,20.1693328 C415.870656,20.1693328 424.231989,28.7775993 424.231989,39.3521323 Z M424.231989,101.578664 C424.231989,112.646931 419.066656,121.501597 405.04799,120.02453 L405.293323,120.02453 C397.422657,119.779197 387.33999,118.79533 378.977324,118.303597 C378.731991,125.436397 378.485324,128.14173 378.239991,133.551997 C384.87999,136.011997 394.47199,138.471997 402.589323,138.71733 C427.183989,139.20933 443.417322,119.28693 443.417322,97.8901309 L443.417322,39.3521323 C443.417322,18.2015995 426.446656,0.738541315 405.293323,0.738541315 C384.142657,0.738541315 366.679991,18.2015995 366.679991,39.3521323 L366.679991,51.404132 C366.679991,72.5562649 381.190657,88.5426645 405.293323,88.5426645 C414.394656,88.5426645 419.066656,87.5587978 424.231989,86.0843978 L424.231989,101.578664 L424.231989,101.578664 Z" id="path24"></path>
            <path d="M498.518654,138.71733 C519.671987,138.71733 537.13332,121.501597 537.13332,100.103064 L537.13332,97.6431976 C529.50932,97.3969309 523.359987,97.3969309 517.703987,97.1515976 L517.703987,100.103064 C517.703987,110.432797 509.094654,119.040664 498.518654,119.040664 C488.189321,119.040664 479.825321,110.432797 479.825321,100.103064 L479.825321,38.6145324 C479.825321,27.7931993 488.189321,19.6759995 498.518654,19.6759995 C508.849321,19.6759995 517.45732,27.5469326 517.703987,37.8775991 C527.294653,37.1385324 536.395987,36.6469324 537.13332,36.6469324 C536.14932,16.2333329 518.93332,0 498.518654,0 C477.367988,0 460.149322,17.2171996 460.149322,38.6145324 L460.149322,100.103064 C460.149322,121.501597 477.367988,138.71733 498.518654,138.71733" id="path26"></path>
            <path d="M614.654651,2.21354661 L577.270652,67.3921316 C573.579986,73.7854648 573.579986,74.5239981 578.007986,82.1489313 L610.965318,136.74933 L633.347984,136.74933 L596.207985,73.7854648 L636.298651,2.21354661 L614.654651,2.21354661 Z M572.350652,194.302662 L572.350652,2.21354661 L552.674653,2.21354661 L552.674653,194.302662 L572.350652,194.302662 L572.350652,194.302662 Z" id="path28"></path>
            <path d="M660.11865,79.1973314 L697.995983,79.1973314 L697.995983,99.8578642 C697.995983,110.432797 689.386649,119.040664 679.057316,119.040664 C668.481317,119.040664 660.11865,110.432797 660.11865,99.8578642 L660.11865,79.1973314 Z M640.442651,99.8578642 C640.442651,121.254664 657.659984,138.71733 679.057316,138.71733 C700.207982,138.71733 717.426649,121.254664 717.426649,99.8578642 L717.426649,69.6046649 C717.426649,63.9469317 712.998649,59.7666652 707.587982,59.7666652 L660.11865,59.7666652 L660.11865,38.8614657 C660.11865,28.285466 668.481317,19.6759995 679.057316,19.6759995 L703.898649,19.6759995 C704.143982,13.282813 704.390649,8.85311978 704.882649,4.42811989 L681.27065,0.738541315 C657.167984,-3.44270658 640.442651,17.4625329 640.442651,38.8614657 L640.442651,99.8578642 L640.442651,99.8578642 Z" id="path30"></path>
            <path d="M754.361314,2.21354661 L734.683982,2.21354661 L734.683982,98.1354642 C734.683982,119.533864 751.409315,139.454663 776.003981,138.963997 C784.366647,138.71733 789.53198,136.74933 795.189313,134.043997 C794.942647,128.14173 794.697313,123.222397 794.45198,118.79533 L773.053314,119.28693 C762.722648,119.28693 754.361314,108.218797 754.361314,98.1354642 L754.361314,2.21354661" id="path32"></path>
        </g>
    </g>
</svg>